# xmcd
#
# Track frame offsets:
#	150
#	18097
#	31834
#	46207
#	63367
#	79350
#	95807
#	112557
#	129297
#	143714
#	156675
#	170419
#	184645
#	203019
#	221808
#
# Disc length: 3218 seconds
#
# Revision: 1
# Processed by: cddbd v1.5.2PL0 Copyright (c) Steve Scherf et al.
# Submitted via: audiograbber 1.83.01
#
DISCID=c60c900f
DTITLE=Various Artist - DJ
DYEAR=1900
DGENRE=
TTITLE0=CARRIE UNDERWOOD - COWBOY CASANOVA
TTITLE1=BROOKS and DUNN - HONKEY TONK STOMP
TTITLE2=JASON ALDEAN - GROWING IS GETTING OLD
TTITLE3=KELLY PICKLER - BEST DAYS OR YOUR LIFE
TTITLE4=TOBY KEITH - THERE'S ONE IN EVERY CROWD
TTITLE5=ZACK BROWN BAND - CHICKEN FRIED
TTITLE6=JASON ALDEAN - SHE'S COUNTRY
TTITLE7=JUSTIN MOORE - SMALL TOWN USA
TTITLE8=LUKE BRYAN - COUNTRY MAN
TTITLE9=RANDY HOUSER - BOOTS ON
TTITLE10=SUGARLAND - IT HAPPENS
TTITLE11=TOBY KEITH - SHE'S A HOTTIE
TTITLE12=LUKE BRYAN - ALL MY FRIENDS SAY
TTITLE13=BRAD PAISLEY - I'M STILL A GUY
TTITLE14=DIERKS BENTLEY - WHAT WAS I THINKING
EXTD=
EXTT0=
EXTT1=
EXTT2=
EXTT3=
EXTT4=
EXTT5=
EXTT6=
EXTT7=
EXTT8=
EXTT9=
EXTT10=
EXTT11=
EXTT12=
EXTT13=
EXTT14=
PLAYORDER=
